HIERARCHY
ROOT Hips
{
 OFFSET 0.000000 0.000000 0.000000
 CHANNELS 6 Xposition Yposition Zposition Yrotation Xrotation Zrotation
 JOINT Chest
 {
  OFFSET 0.000000 9.585900 0.002600
  CHANNELS 3 Yrotation Xrotation Zrotation
  JOINT Chest2
  {
   OFFSET 0.000000 9.601200 -0.005300
   CHANNELS 3 Yrotation Xrotation Zrotation
   JOINT Chest3
   {
    OFFSET 0.000000 9.561800 0.000000
    CHANNELS 3 Yrotation Xrotation Zrotation
    JOINT Chest4
    {
     OFFSET 0.000000 9.552100 0.000000
     CHANNELS 3 Yrotation Xrotation Zrotation
     JOINT Neck
     {
      OFFSET 0.000000 14.453000 0.000000
      CHANNELS 3 Yrotation Xrotation Zrotation
      JOINT Head
      {
       OFFSET 0.000000 8.936500 -0.011300
       CHANNELS 3 Yrotation Xrotation Zrotation
       End Site
       {
        OFFSET 0.000000 17.073600 -0.006000
       }
      }
     }
     JOINT RightCollar
     {
      OFFSET -2.921100 9.558500 0.000000
      CHANNELS 3 Yrotation Xrotation Zrotation
      JOINT RightShoulder
      {
       OFFSET -13.519700 0.000000 0.000000
       CHANNELS 3 Yrotation Xrotation Zrotation
       JOINT RightElbow
       {
        OFFSET 0.000000 -29.696600 0.000000
        CHANNELS 3 Yrotation Xrotation Zrotation
        JOINT RightWrist
        {
         OFFSET 0.000000 -24.004700 0.000000
         CHANNELS 3 Yrotation Xrotation Zrotation
         End Site
         {
          OFFSET 0.000000 -17.728500 0.000000
         }
        }
       }
      }
     }
     JOINT LeftCollar
     {
      OFFSET 2.921100 9.558500 0.000000
      CHANNELS 3 Yrotation Xrotation Zrotation
      JOINT LeftShoulder
      {
       OFFSET 13.519700 0.000000 0.000000
       CHANNELS 3 Yrotation Xrotation Zrotation
       JOINT LeftElbow
       {
        OFFSET 0.000000 -29.696600 0.000000
        CHANNELS 3 Yrotation Xrotation Zrotation
        JOINT LeftWrist
        {
         OFFSET 0.000000 -24.004700 0.000000
         CHANNELS 3 Yrotation Xrotation Zrotation
         End Site
         {
          OFFSET 0.000000 -17.728500 0.000000
         }
        }
       }
      }
     }
    }
   }
  }
 }
 JOINT RightHip
 {
  OFFSET -7.771700 -0.012900 -0.001300
  CHANNELS 3 Yrotation Xrotation Zrotation
  JOINT RightKnee
  {
   OFFSET 0.000000 -40.869800 0.001200
   CHANNELS 3 Yrotation Xrotation Zrotation
   JOINT RightAnkle
   {
    OFFSET 0.000000 -39.717900 0.002100
    CHANNELS 3 Yrotation Xrotation Zrotation
    JOINT RightToe
    {
     OFFSET 0.000000 -4.965400 11.033500
     CHANNELS 3 Yrotation Xrotation Zrotation
     End Site
     {
      OFFSET 0.000000 -1.423100 5.872300
     }
    }
   }
  }
 }
 JOINT LeftHip
 {
  OFFSET 7.771700 -0.012900 -0.001300
  CHANNELS 3 Yrotation Xrotation Zrotation
  JOINT LeftKnee
  {
   OFFSET 0.000000 -40.869800 0.001200
   CHANNELS 3 Yrotation Xrotation Zrotation
   JOINT LeftAnkle
   {
    OFFSET 0.000000 -39.717900 0.002100
    CHANNELS 3 Yrotation Xrotation Zrotation
    JOINT LeftToe
    {
     OFFSET 0.000000 -4.965400 11.033500
     CHANNELS 3 Yrotation Xrotation Zrotation
     End Site
     {
      OFFSET 0.000000 -1.423100 5.872300
     }
    }
   }
  }
 }
}
MOTION
Frames: 16
Frame Time: 0.008333
0.000000 85.388000 0.000000 0.000000 -5.767877 0.000000 0.000000 11.653817 0.000000 0.000000 -5.885947 0.000000 0.000000 -0.000000 0.000000 0.000000 -0.000000 0.000000 0.000000 12.528835 0.000000 0.000000 0.711642 0.000000 0.000000 -0.000000 0.000000 0.000000 0.000000 -90.000000 0.000000 -2.309062 0.000000 0.000000 2.309062 0.000000 0.000000 -0.000000 0.000000 0.000000 -0.000000 90.000000 0.000000 -2.309062 0.000000 0.000000 2.309062 0.000000 0.000000 8.520406 0.000000 0.000000 1.905762 0.000000 -0.000000 -4.658285 0.000000 0.000000 -0.000000 0.000000 0.000000 8.520406 0.000000 0.000000 1.905762 0.000000 -0.000000 -4.658285 0.000000 0.000000 -0.000000 0.000000
-98.970871 57.602697 93.608988 179.892384 -30.774466 -2.222643 1.838779 21.188008 1.633688 0.234753 2.822298 0.230678 0.389164 4.601725 0.382578 1.756726 18.074329 1.733424 -0.056152 13.819030 -0.683498 0.116448 -10.219079 -1.204128 4.043441 -1.533944 -0.400608 15.942736 -22.122709 -19.921326 127.556950 -63.824512 -93.527065 16.562037 -23.892546 -41.408982 -8.026637 -3.625603 -2.958795 -1.736356 -18.778124 -0.631154 35.667916 -71.171762 -66.066705 6.891507 -5.097610 23.976913 6.113414 -44.470652 -3.858005 -15.896471 68.688100 -21.172735 9.787308 19.829403 10.752636 -0.119104 -14.507951 2.269693 -7.049963 -42.266257 2.445246 27.888954 67.096364 24.371720 -17.802236 4.293844 -1.020849 0.225989 0.322359 0.142318
-98.971243 57.606990 93.599695 179.942320 -30.746356 -2.238961 1.829789 21.194949 1.628838 0.234833 2.824342 0.229862 0.424889 4.648315 0.369457 1.724092 18.035455 1.741038 -0.099664 13.772047 -0.673356 0.008464 -10.314198 -1.181681 4.034421 -1.537857 -0.402516 15.903107 -22.078809 -19.943679 127.820823 -63.592788 -93.975563 16.626507 -23.878666 -41.613986 -8.029228 -3.652947 -2.945259 -1.636437 -18.823782 -0.587433 35.906724 -72.056893 -66.140803 6.612580 -4.891664 23.963561 6.078333 -44.487612 -3.863571 -15.808458 68.719447 -21.088339 9.706559 19.798862 10.709976 -0.097647 -14.503904 2.291938 -7.035737 -42.290268 2.441594 27.875132 67.099859 24.335649 -17.822834 4.294561 -0.973960 0.204922 0.325532 0.140009
-98.971504 57.611653 93.589585 179.978524 -30.712413 -2.250664 1.875664 21.237469 1.633480 0.226186 2.817224 0.230979 0.397992 4.620055 0.374680 1.722470 18.043843 1.736295 -0.127127 13.720106 -0.650415 -0.113766 -10.410212 -1.168483 4.028795 -1.548388 -0.405091 15.854067 -22.053124 -19.956283 128.073680 -63.398412 -94.400264 16.675128 -23.876328 -41.830152 -8.049132 -3.695881 -2.916615 -1.526733 -18.858311 -0.565739 36.197122 -72.881518 -66.271695 6.338212 -4.699602 23.925124 6.054150 -44.512717 -3.862427 -15.743245 68.745428 -21.031907 9.635993 19.782265 10.678866 -0.081576 -14.511079 2.311560 -7.015649 -42.320610 2.442057 27.875121 67.107734 24.308437 -17.827521 4.291436 -0.918044 0.195642 0.321386 0.126675
-98.971941 57.616992 93.578195 179.999153 -30.680905 -2.257762 1.894365 21.242564 1.635463 0.227117 2.819925 0.229377 0.380524 4.600817 0.379108 1.740243 18.069200 1.720343 -0.180870 13.671022 -0.644953 -0.213148 -10.506344 -1.140262 4.017023 -1.558206 -0.399728 15.800761 -22.023546 -19.963169 128.340090 -63.242549 -94.837989 16.705819 -23.882630 -42.030843 -8.046358 -3.714458 -2.899614 -1.458252 -18.904215 -0.533075 36.545271 -73.660666 -66.462310 6.052008 -4.509057 23.854206 6.038777 -44.535165 -3.850594 -15.718050 68.761126 -21.022502 9.585543 19.771511 10.664890 -0.065130 -14.534081 2.323218 -6.987748 -42.348574 2.445954 27.869743 67.117573 24.281034 -17.839525 4.291643 -0.871350 0.177276 0.306999 0.111548
-98.975068 57.622101 93.566842 -179.983788 -30.646508 -2.254467 1.892514 21.226137 1.624911 0.219111 2.811902 0.231271 0.389280 4.610874 0.376285 1.752618 18.091507 1.706537 -0.261706 13.613787 -0.669904 -0.280628 -10.587622 -1.098415 4.011130 -1.545008 -0.408576 15.738449 -22.017141 -19.956290 128.615200 -63.117049 -95.282515 16.726885 -23.886368 -42.185640 -8.014252 -3.706875 -2.905518 -1.425060 -18.962973 -0.483094 36.939204 -74.417188 -66.705014 5.765245 -4.315464 23.755855 6.034494 -44.560652 -3.852965 -15.729852 68.770037 -21.055942 9.571184 19.763794 10.668234 -0.068816 -14.553753 2.333914 -6.962674 -42.381544 2.439466 27.870151 67.128769 24.256647 -17.837758 4.293396 -0.834212 0.151526 0.298595 0.112395
-98.982652 57.626166 93.556666 -179.959659 -30.603985 -2.238785 1.876431 21.201313 1.595437 0.235602 2.829302 0.226183 0.422881 4.648214 0.364157 1.756528 18.096164 1.697757 -0.331251 13.530272 -0.641384 -0.371702 -10.668998 -1.080411 3.970394 -1.580328 -0.389475 15.677338 -22.005481 -19.942724 128.888134 -63.007125 -95.717616 16.737255 -23.886197 -42.275881 -8.064161 -3.770775 -2.845123 -1.382471 -18.975374 -0.472361 37.365549 -75.173653 -66.936008 5.492932 -4.118736 23.649176 6.044480 -44.593748 -3.879564 -15.779638 68.775323 -21.134859 9.570930 19.757133 10.699111 -0.064369 -14.575146 2.328048 -6.953227 -42.425138 2.413969 27.913564 67.130563 24.263767 -17.830035 4.305378 -0.783106 0.114758 0.280166 0.091127
-98.983840 57.629154 93.548369 -179.938798 -30.552013 -2.273155 1.903025 21.183117 1.626157 0.265510 2.862417 0.214159 0.376559 4.597171 0.379588 1.768975 18.114834 1.687949 -0.376399 13.491278 -0.644065 -0.455657 -10.741684 -1.067742 3.959238 -1.572892 -0.399566 15.615816 -22.001400 -19.921593 129.144481 -62.901583 -96.127991 16.737714 -23.889308 -42.305623 -8.058992 -3.774169 -2.841678 -1.293237 -19.009888 -0.424344 37.862694 -75.868629 -67.326442 5.238532 -3.928357 23.559054 6.011707 -44.643251 -3.842850 -15.828688 68.780753 -21.208588 9.617264 19.736095 10.772856 -0.097634 -14.587267 2.293566 -6.959361 -42.474509 2.449824 27.892012 67.142183 24.227959 -17.807860 4.324496 -0.737009 0.071819 0.250920 0.068030
-98.991487 57.631317 93.540291 -179.922505 -30.500900 -2.282137 1.936396 21.179672 1.626864 0.249089 2.847967 0.220347 0.364293 4.579062 0.383649 1.779868 18.135119 1.680578 -0.411284 13.454560 -0.641780 -0.536074 -10.806086 -1.065776 3.947436 -1.578747 -0.406164 15.559586 -21.989259 -19.901439 129.389318 -62.792024 -96.515023 16.737935 -23.891464 -42.295784 -8.053705 -3.783129 -2.840085 -1.198142 -19.035462 -0.373186 38.404494 -76.511308 -67.781600 5.009972 -3.755364 23.501020 6.002924 -44.690783 -3.847584 -15.845144 68.785010 -21.234548 9.607518 19.747107 10.808759 -0.079225 -14.609620 2.264350 -6.939690 -42.523532 2.451692 27.861574 67.154667 24.187348 -17.813833 4.315847 -0.703040 0.063474 0.256997 0.067579
-99.008185 57.634182 93.529433 -179.913436 -30.470852 -2.250158 1.929513 21.168364 1.588048 0.259050 2.864402 0.216405 0.368492 4.581001 0.382298 1.777680 18.135934 1.679132 -0.431969 13.417329 -0.627049 -0.619174 -10.863074 -1.077029 3.937515 -1.588465 -0.413292 15.505185 -21.978983 -19.885487 129.628918 -62.674222 -96.879293 16.739517 -23.886386 -42.264182 -8.051097 -3.792114 -2.839288 -1.127677 -19.060489 -0.324903 38.949651 -77.098890 -68.233586 4.818460 -3.607648 23.478440 6.060565 -44.716289 -3.900760 -15.920102 68.798274 -21.345817 9.621487 19.735097 10.897296 -0.080109 -14.626641 2.229604 -6.877861 -42.555861 2.402146 27.882392 67.170058 24.159710 -17.779011 4.316751 -0.623064 0.009098 0.249192 0.052997
-99.031287 57.637091 93.516962 -179.883078 -30.452412 -2.207717 1.905328 21.185449 1.525772 0.260416 2.863880 0.217977 0.392045 4.617221 0.371417 1.754891 18.093767 1.690977 -0.467539 13.394639 -0.639033 -0.679758 -10.919306 -1.071774 3.935246 -1.590171 -0.423076 15.455162 -21.973321 -19.877628 129.851631 -62.551701 -97.208953 16.737928 -23.875802 -42.218642 -8.046626 -3.795847 -2.844844 -1.060120 -19.080170 -0.278280 39.487541 -77.622030 -68.697243 4.661057 -3.486296 23.485960 6.128764 -44.724422 -3.974858 -15.918760 68.832197 -21.440178 9.676854 19.681656 11.074223 -0.148259 -14.636112 2.186684 -6.780662 -42.575706 2.302306 27.819249 67.176893 24.106574 -17.830761 4.317361 -0.610164 0.057193 0.241831 0.058369
-99.051796 57.638523 93.506062 -179.863712 -30.424949 -2.191461 1.904110 21.190961 1.500582 0.259818 2.863870 0.217502 0.392306 4.618762 0.370475 1.740711 18.068724 1.697522 -0.508952 13.401699 -0.684822 -0.721988 -10.977603 -1.046811 3.944230 -1.574706 -0.439810 15.415181 -21.972119 -19.879171 130.050150 -62.429554 -97.500706 16.730423 -23.859406 -42.162570 -8.014903 -3.770841 -2.882398 -1.029680 -19.109963 -0.211168 39.995265 -78.090082 -69.142216 4.527907 -3.387095 23.510239 6.181001 -44.741623 -4.026314 -15.917767 68.857802 -21.489601 9.682940 19.630525 11.277186 -0.139224 -14.624215 2.058259 -6.759083 -42.604351 2.265682 27.840476 67.178810 24.109177 -17.858787 4.319657 -0.589207 0.066315 0.238629 0.062582
-99.081320 57.639844 93.493580 -179.824985 -30.407569 -2.145636 1.896639 21.237615 1.437164 0.236900 2.834636 0.222942 0.392322 4.620761 0.369837 1.741898 18.069128 1.691589 -0.535581 13.376107 -0.681305 -0.773784 -11.016548 -1.049933 3.931488 -1.600416 -0.431333 15.397614 -21.960704 -19.898380 130.228553 -62.309827 -97.761700 16.719494 -23.834786 -42.103565 -8.019530 -3.787018 -2.875388 -1.015303 -19.125378 -0.179443 40.360438 -78.546578 -69.422558 4.414808 -3.312214 23.548523 6.265350 -44.740921 -4.141996 -15.908321 68.890196 -21.524827 9.661768 19.579938 11.442880 -0.109758 -14.612819 1.960178 -6.716418 -42.627311 2.171170 27.854586 67.181562 24.113239 -17.917923 4.304170 -0.597279 0.106084 0.248071 0.081489
-99.103416 57.640702 93.481388 -179.781279 -30.389858 -2.158634 1.883343 21.252870 1.432750 0.236868 2.836107 0.222935 0.392229 4.623065 0.369743 1.735073 18.073293 1.685445 -0.549253 13.339622 -0.668579 -0.824021 -11.034920 -1.063013 3.922887 -1.631416 -0.425878 15.395346 -21.951475 -19.926470 130.380703 -62.190982 -97.988152 16.714385 -23.807596 -42.063100 -8.020610 -3.807700 -2.869662 -0.973493 -19.136761 -0.123903 40.736926 -78.993870 -69.758763 4.317074 -3.255912 23.600831 6.300528 -44.740196 -4.188062 -15.887623 68.922680 -21.537256 9.665197 19.487187 11.611596 -0.117915 -14.569674 1.865162 -6.667340 -42.641210 2.120979 27.771863 67.185060 24.072754 -17.979690 4.284592 -0.619390 0.170599 0.263231 0.106520
-99.126792 57.639656 93.471590 -179.719599 -30.356794 -2.181526 1.855867 21.253718 1.430408 0.236699 2.837609 0.222929 0.391902 4.625399 0.369665 1.757286 18.116895 1.678499 -0.593370 13.278818 -0.659933 -0.864410 -11.055370 -1.060912 3.919607 -1.670939 -0.447961 15.368708 -21.982735 -19.937804 130.507096 -62.070139 -98.182512 16.725204 -23.783911 -42.065277 -8.053216 -3.865793 -2.848448 -0.952881 -19.144470 -0.065212 41.118314 -79.471782 -70.081067 4.221869 -3.204302 23.653335 6.321937 -44.748483 -4.240646 -15.838841 68.947997 -21.511910 9.652603 19.394477 11.758556 -0.120342 -14.518564 1.781077 -6.673645 -42.672791 2.089160 27.776177 67.182669 24.083447 -18.018165 4.264157 -0.610874 0.203118 0.281325 0.112809
-99.148947 57.639931 93.459060 -179.676908 -30.347036 -2.206849 1.850433 21.276305 1.440272 0.223001 2.822755 0.226035 0.404495 4.643455 0.365660 1.755032 18.120290 1.677259 -0.618582 13.299879 -0.680596 -0.882553 -11.111788 -1.032807 3.924901 -1.685985 -0.457092 15.385202 -21.989368 -19.975322 130.617524 -61.945156 -98.351152 16.756715 -23.764568 -42.123242 -8.064450 -3.884681 -2.846137 -0.961574 -19.149600 -0.009036 41.554676 -79.975621 -70.428400 4.116406 -3.155227 23.701435 6.416106 -44.720208 -4.333958 -15.792920 68.957437 -21.423790 9.649695 19.306953 11.867880 -0.140533 -14.459802 1.727187 -6.672519 -42.678537 2.070035 27.793876 67.180912 24.106090 -18.058249 4.244312 -0.599042 0.224659 0.294244 0.117963
